<?xml version="1.0" encoding="UTF-8" standalone="no"?>
<!DOCTYPE svg PUBLIC "-//W3C//DTD SVG 1.1//EN"
 "http://www.w3.org/Graphics/SVG/1.1/DTD/svg11.dtd">
<!-- Generated by graphviz version 2.42.4 (0)
 -->
<!-- Pages: 1 -->
<svg width="129pt" height="152pt"
 viewBox="0.00 0.00 129.00 152.00" xmlns="http://www.w3.org/2000/svg" xmlns:xlink="http://www.w3.org/1999/xlink">
<g id="graph0" class="graph" transform="scale(1 1) rotate(0) translate(4 148)">
<g id="a_graph0"><a xlink:title=" ">
<polygon fill="white" stroke="transparent" points="-4,4 -4,-148 125,-148 125,4 -4,4"/>
</a>
</g>
<!-- 1 -->
<g id="node1" class="node">
<title>1</title>
<g id="a_node1"><a xlink:title="a.py">
<polygon fill="#0d1274" stroke="#0d1274" points="56,-52 0,-52 0,0 56,0 56,-52"/>
<text text-anchor="middle" x="28" y="-40" font-family="Arial" font-size="10.00" fill="#ffffff">a:1:quick</text>
<text text-anchor="middle" x="28" y="-29" font-family="Arial" font-size="10.00" fill="#ffffff">1.30%</text>
<text text-anchor="middle" x="28" y="-18" font-family="Arial" font-size="10.00" fill="#ffffff">(1.30%)</text>
<text text-anchor="middle" x="28" y="-7" font-family="Arial" font-size="10.00" fill="#ffffff">1×</text>
</a>
</g>
</g>
<!-- 2 -->
<g id="node2" class="node">
<title>2</title>
<g id="a_node2"><a xlink:title="a.py">
<polygon fill="#f44b02" stroke="#f44b02" points="98.5,-144 21.5,-144 21.5,-92 98.5,-92 98.5,-144"/>
<text text-anchor="middle" x="60" y="-132" font-family="Arial" font-size="10.00" fill="#ffffff">a:1:&lt;module&gt;</text>
<text text-anchor="middle" x="60" y="-121" font-family="Arial" font-size="10.00" fill="#ffffff">92.44%</text>
<text text-anchor="middle" x="60" y="-110" font-family="Arial" font-size="10.00" fill="#ffffff">(1.33%)</text>
<text text-anchor="middle" x="60" y="-99" font-family="Arial" font-size="10.00" fill="#ffffff">1×</text>
</a>
</g>
</g>
<!-- 2&#45;&gt;1 -->
<g id="edge1" class="edge">
<title>2&#45;&gt;1</title>
<path fill="none" stroke="#0d1274" stroke-width="0.5" d="M51.09,-91.93C47.1,-80.71 42.37,-67.42 38.24,-55.8"/>
<polygon fill="#0d1274" stroke="#0d1274" stroke-width="0.5" points="39.3,-55.14 36.98,-52.25 37,-55.96 39.3,-55.14"/>
<text text-anchor="middle" x="62" y="-75" font-family="Arial" font-size="10.00" fill="#0d1274">1.30%</text>
<text text-anchor="middle" x="62" y="-64" font-family="Arial" font-size="10.00" fill="#0d1274">1×</text>
</g>
<!-- 3 -->
<g id="node3" class="node">
<title>3</title>
<g id="a_node3"><a xlink:title="a.py">
<polygon fill="#f06302" stroke="#f06302" points="121,-52 65,-52 65,0 121,0 121,-52"/>
<text text-anchor="middle" x="93" y="-40" font-family="Arial" font-size="10.00" fill="#ffffff">a:5:long</text>
<text text-anchor="middle" x="93" y="-29" font-family="Arial" font-size="10.00" fill="#ffffff">89.81%</text>
<text text-anchor="middle" x="93" y="-18" font-family="Arial" font-size="10.00" fill="#ffffff">(89.81%)</text>
<text text-anchor="middle" x="93" y="-7" font-family="Arial" font-size="10.00" fill="#ffffff">1×</text>
</a>
</g>
</g>
<!-- 2&#45;&gt;3 -->
<g id="edge2" class="edge">
<title>2&#45;&gt;3</title>
<path fill="none" stroke="#f06302" stroke-width="3.59" d="M74.2,-91.67C75.58,-88.79 76.88,-85.86 78,-83 80.66,-76.24 83.01,-68.84 85.01,-61.69"/>
<polygon fill="#f06302" stroke="#f06302" stroke-width="3.59" points="88.31,-62.23 87.53,-52.2 81.88,-60.53 88.31,-62.23"/>
<text text-anchor="middle" x="101" y="-75" font-family="Arial" font-size="10.00" fill="#f06302">89.81%</text>
<text text-anchor="middle" x="101" y="-64" font-family="Arial" font-size="10.00" fill="#f06302">1×</text>
</g>
</g>
</svg>
